<svg version="1.1" id="Layer_1" xmlns="http://www.w3.org/2000/svg" xmlns:xlink="http://www.w3.org/1999/xlink" x="0px" y="0px"
	 width="100%" viewBox="0 0 300 281" enable-background="new 0 0 300 281" xml:space="preserve">
<path fill="#FFFFFF" opacity="1.000000" stroke="none" 
	d="
M1.000000,57.000000 
	C1.000000,38.341778 1.000000,19.683554 0.999999,1.018998 
	C100.946320,1.012666 200.892639,1.012666 300.919495,1.012666 
	C300.919495,94.570557 300.919495,188.141205 300.919495,281.855927 
	C201.000153,281.855927 101.000107,281.855927 1.000000,281.855927 
	C1.000000,271.928497 1.000000,261.932892 1.336660,251.557938 
	C9.584096,264.169128 21.714832,269.121368 36.294491,268.977417 
	C48.197788,268.859863 60.098194,268.025543 71.997925,268.067291 
	C90.889183,268.133514 109.784386,268.482574 128.667297,269.059540 
	C142.987808,269.497131 154.896988,265.306854 163.462158,253.180817 
	C164.490479,253.927887 165.490616,254.358078 165.926270,255.113724 
	C171.107498,264.100128 179.518784,266.093231 189.425034,265.951904 
	C192.936157,265.935211 195.989822,265.882568 199.479126,265.899475 
	C223.597778,265.590424 247.280807,265.211792 271.301086,264.903137 
	C272.092773,264.926636 272.547272,264.880157 273.416138,264.902527 
	C275.574646,264.646820 277.330627,263.991547 279.060852,264.053741 
	C287.413483,264.353943 291.307495,257.597626 295.747223,252.655396 
	C298.026947,250.117691 297.961121,244.904800 297.894623,240.918533 
	C297.416168,212.243851 296.609039,183.574844 296.032623,154.901489 
	C295.835144,145.078979 295.994965,135.249207 295.999451,125.422745 
	C296.003601,116.429222 295.857605,107.431770 296.077026,98.443352 
	C296.268494,90.599617 294.374481,83.595703 289.132019,77.635742 
	C284.601227,72.484863 278.725220,70.051666 272.034729,68.783859 
	C270.829407,61.317867 268.791565,54.563385 260.174072,54.152477 
	C246.425034,53.496883 232.646759,53.398869 218.878860,53.217270 
	C212.247070,53.129807 205.450378,54.356674 199.010025,53.289131 
	C185.911957,51.118015 178.073914,56.912312 177.576538,70.070602 
	C173.453705,71.620300 169.735260,73.219048 166.013245,74.422211 
	C165.952225,72.700378 165.894775,71.374130 165.901459,69.690582 
	C165.658096,68.260780 165.350616,67.188263 164.930481,65.718224 
	C164.545197,64.237450 164.082367,63.163380 164.029541,62.069511 
	C163.527390,51.671089 155.579971,43.256290 144.267624,42.962334 
	C142.527618,42.917118 140.802872,42.285393 139.040039,41.547070 
	C139.104813,39.635857 138.381699,37.677174 140.951691,37.428860 
	C140.633804,34.524261 141.061920,31.239176 139.820648,28.805536 
	C138.023788,25.282572 135.308533,21.172016 130.989975,21.140879 
	C96.595947,20.892887 62.199291,20.973421 27.803587,21.034519 
	C22.909039,21.043213 16.289572,26.893042 16.521482,31.312647 
	C16.691475,34.552235 18.072266,37.728287 18.576458,41.090485 
	C16.073881,42.065323 13.908257,42.882336 11.779960,43.685265 
	C11.766642,43.670361 12.134801,44.082428 12.674685,44.686699 
	C6.641098,45.310886 4.816486,49.902809 2.965853,54.549511 
	C2.595363,55.479763 1.669686,56.188908 1.000000,57.000000 
M108.499710,19.002691 
	C81.518799,19.002691 54.537891,19.002691 27.556980,19.002691 
	C27.558887,19.239702 27.560793,19.476715 27.562698,19.713726 
	C61.174049,19.713726 94.785400,19.713726 128.396744,19.713726 
	C128.398712,19.476715 128.400665,19.239702 128.402618,19.002691 
	C122.101562,19.002691 115.800499,19.002691 108.499710,19.002691 
M230.500168,267.000000 
	C241.724533,267.000000 252.948898,267.000000 264.173248,267.000000 
	C264.168152,266.760315 264.163025,266.520630 264.157898,266.280945 
	C245.980240,266.280945 227.802567,266.280945 209.624893,266.280945 
	C209.623169,266.520630 209.621429,266.760315 209.619690,267.000000 
	C216.246567,267.000000 222.873428,267.000000 230.500168,267.000000 
z"/>
<path fill="#866015" opacity="1.000000" stroke="none" 
	d="
M163.171738,253.015121 
	C154.896988,265.306854 142.987808,269.497131 128.667297,269.059540 
	C109.784386,268.482574 90.889183,268.133514 71.997925,268.067291 
	C60.098194,268.025543 48.197788,268.859863 36.294491,268.977417 
	C21.714832,269.121368 9.584096,264.169128 1.336660,251.089279 
	C1.000000,238.312439 1.000000,225.624878 1.392174,212.274536 
	C1.855871,192.733170 1.937551,173.854599 1.956533,154.975967 
	C1.957195,154.317627 1.332973,153.658676 1.000000,153.000000 
	C1.000000,128.645767 1.000000,104.291542 1.330404,79.417099 
	C1.769463,77.255455 1.878117,75.614037 1.991050,73.609802 
	C1.663553,72.164665 1.331777,71.082329 1.000001,70.000000 
	C1.000000,65.975456 1.000000,61.950912 1.000000,57.463184 
	C1.669686,56.188908 2.595363,55.479763 2.965853,54.549511 
	C4.816486,49.902809 6.641098,45.310886 12.674685,44.686699 
	C12.134801,44.082428 11.766642,43.670361 11.779960,43.685265 
	C13.908257,42.882336 16.073881,42.065323 18.789465,41.385437 
	C24.968180,43.023800 30.590117,44.551296 36.228497,46.015469 
	C39.151123,46.774414 42.102867,47.421230 45.167068,48.462181 
	C46.300533,54.788914 43.574677,57.877193 36.709007,58.050125 
	C35.229706,58.031010 34.154434,58.034622 32.752438,58.020966 
	C31.268576,57.955914 30.111435,57.908127 28.663605,57.594433 
	C25.266207,57.504372 22.159498,57.680218 18.675785,58.034370 
	C17.870621,59.223221 17.095665,60.224213 17.067530,61.245773 
	C16.760094,72.408524 17.157831,83.498161 14.278051,94.599205 
	C12.453820,101.631294 12.907905,109.374710 13.085982,116.781166 
	C13.470597,132.777832 14.824974,148.760925 14.890333,164.753220 
	C14.990725,189.316956 14.320367,213.883484 14.021255,238.449371 
	C13.939460,245.167252 16.080759,247.774475 21.963202,250.575958 
	C30.393866,254.591034 39.214375,256.209808 48.424755,255.973160 
	C54.847584,255.808136 61.260918,255.088104 67.681267,255.046738 
	C87.159363,254.921188 106.645218,255.285431 126.113930,254.840729 
	C132.144882,254.702957 138.320831,253.135117 144.054001,251.140228 
	C146.773438,250.193985 150.299194,246.852982 150.520325,244.338409 
	C151.138794,237.305206 152.642166,229.923950 148.977814,222.675293 
	C148.724396,219.839554 148.460175,217.434753 148.113464,214.585114 
	C148.688156,210.190079 149.601578,206.261917 149.944183,202.284607 
	C150.495667,195.882172 150.798203,189.450897 150.978592,183.025421 
	C151.393494,168.246124 151.823730,153.464478 151.965637,138.681061 
	C152.133575,121.184105 152.126251,103.682800 151.909271,86.186913 
	C151.861954,82.371452 150.605438,78.570984 149.938354,74.351151 
	C149.675766,71.303490 149.380661,68.668304 149.028717,65.720833 
	C149.030319,62.073212 149.675964,58.311188 144.670715,58.021141 
	C137.493378,57.605217 130.310577,57.185966 123.124634,57.043667 
	C116.022186,56.903023 114.095947,55.191654 114.227737,47.818886 
	C122.826920,46.253754 131.480225,46.426342 139.071060,41.924915 
	C140.802872,42.285393 142.527618,42.917118 144.267624,42.962334 
	C155.579971,43.256290 163.527390,51.671089 164.029541,62.069511 
	C164.082367,63.163380 164.545197,64.237450 164.910080,66.105804 
	C165.003235,67.938095 165.004120,68.985283 165.005096,70.452820 
	C165.013504,72.279121 165.021820,73.685059 165.010559,75.483574 
	C163.975693,80.592850 162.960419,85.309547 161.691437,90.238586 
	C161.624023,91.632179 161.810303,92.813431 162.075989,94.367142 
	C162.099991,95.495140 162.044571,96.250679 161.823257,97.094002 
	C161.767776,97.452438 161.878204,97.723083 162.069824,98.405731 
	C162.102753,100.212173 162.054520,101.606613 161.706924,103.291794 
	C161.274689,108.203758 161.050171,112.825821 161.092163,117.445457 
	C161.099869,118.291420 162.191635,119.127541 162.887787,120.339951 
	C162.972382,121.480324 162.952194,122.248955 162.774017,123.110413 
	C162.738098,123.466934 162.860168,123.730629 163.065689,124.361526 
	C163.122040,125.477707 163.094955,126.226685 162.756195,127.260925 
	C162.324463,127.854462 162.099945,128.162506 162.099258,128.471054 
	C162.054459,148.614761 162.002197,168.758591 162.073746,188.901978 
	C162.077393,189.928253 163.159851,190.950699 163.841553,192.435211 
	C163.685989,212.935379 163.428864,232.975250 163.171738,253.015121 
M3.445664,61.406830 
	C3.445664,61.406830 3.524792,61.548969 3.445664,61.406830 
z"/>
<path fill="#FFFFFF" opacity="1.000000" stroke="none" 
	d="
M1.000000,153.468658 
	C1.332973,153.658676 1.957195,154.317627 1.956533,154.975967 
	C1.937551,173.854599 1.855871,192.733170 1.392174,211.805878 
	C1.000000,192.645767 1.000000,173.291550 1.000000,153.468658 
z"/>
<path fill="#955100" opacity="1.000000" stroke="none" 
	d="
M1.986772,73.972618 
	C1.878117,75.614037 1.769463,77.255455 1.330404,78.948441 
	C1.000000,77.611107 1.000000,76.222221 1.246675,74.409164 
	C1.493349,73.985001 1.986772,73.972618 1.986772,73.972618 
z"/>
<path fill="#757500" opacity="1.000000" stroke="none" 
	d="
M1.991050,73.609802 
	C1.986772,73.972618 1.493349,73.985001 1.246675,73.992500 
	C1.000000,72.933327 1.000000,71.866661 1.000001,70.399994 
	C1.331777,71.082329 1.663553,72.164665 1.991050,73.609802 
z"/>
<path fill="#6021D3" opacity="1.000000" stroke="none" 
	d="
M161.945160,90.026245 
	C162.960419,85.309547 163.975693,80.592850 165.259003,75.421783 
	C165.690308,74.917549 165.853546,74.867676 166.016800,74.817795 
	C169.735260,73.219048 173.453705,71.620300 177.718964,70.375961 
	C178.707458,70.954300 179.291824,71.066078 179.569305,71.419083 
	C183.346497,76.224098 187.823563,78.982605 194.305817,77.433640 
	C196.078461,77.010056 198.139801,77.794655 200.027679,78.415596 
	C199.189606,80.452171 198.806747,82.706062 197.496521,83.598541 
	C195.619186,84.877327 193.064758,85.162094 190.557129,85.571121 
	C187.276749,85.471077 184.238647,85.671173 180.780365,85.938339 
	C178.728058,85.636772 177.095932,85.268143 173.982117,84.564865 
	C175.059769,98.983322 176.066513,112.453194 177.049240,126.255554 
	C177.307053,127.368660 177.588882,128.149277 177.944443,129.340332 
	C177.890701,132.754318 177.670074,135.757263 177.649933,138.761536 
	C177.415802,173.697525 177.192825,208.633652 177.021439,243.569992 
	C176.996872,248.577362 179.010117,250.335815 184.297195,250.410416 
	C185.333130,250.484650 186.172607,250.357193 187.367630,250.334000 
	C190.207489,250.613556 192.691803,250.788864 195.401825,250.971832 
	C195.627518,250.979492 196.062393,251.101395 196.275864,251.472198 
	C221.620239,251.895538 246.752121,252.060028 271.880676,251.841293 
	C274.636353,251.817307 277.741394,250.068039 280.039886,248.287125 
	C284.520813,244.815155 284.811951,238.975861 284.777161,234.257507 
	C284.578094,207.271790 283.617493,180.292480 283.017792,153.308701 
	C282.594086,134.243057 282.438263,115.170746 281.882202,96.109596 
	C281.800720,93.316902 280.576202,90.318443 279.106903,87.881668 
	C277.949219,85.961662 275.898407,84.718170 272.993378,84.826241 
	C268.433411,84.995865 263.846069,84.188583 259.262238,84.032234 
	C255.254913,83.895554 253.167862,82.104988 253.586700,78.034294 
	C258.975067,78.219833 264.058533,78.933456 267.710846,74.263832 
	C269.083557,72.508766 270.613434,70.876617 272.071655,69.188446 
	C278.725220,70.051666 284.601227,72.484863 289.132019,77.635742 
	C294.374481,83.595703 296.268494,90.599617 296.077026,98.443352 
	C295.857605,107.431770 296.003601,116.429222 295.999451,125.422745 
	C295.994965,135.249207 295.835144,145.078979 296.032623,154.901489 
	C296.609039,183.574844 297.416168,212.243851 297.894623,240.918533 
	C297.961121,244.904800 298.026947,250.117691 295.747223,252.655396 
	C291.307495,257.597626 287.413483,264.353943 279.060852,264.053741 
	C277.330627,263.991547 275.574646,264.646820 273.308441,264.519775 
	C271.433472,263.711853 270.081726,263.050110 268.727600,263.045227 
	C249.867035,262.977203 231.006104,262.978058 212.145538,263.042206 
	C210.760468,263.046936 209.377487,263.667145 207.594849,264.000732 
	C206.132980,264.000153 205.069794,264.000061 203.712341,263.703735 
	C199.212158,263.273285 195.005463,263.159058 190.800598,262.997040 
	C188.432968,262.905823 187.842178,263.852478 188.967575,265.915955 
	C179.518784,266.093231 171.107498,264.100128 165.926270,255.113724 
	C165.490616,254.358078 164.490479,253.927887 163.462158,253.180817 
	C163.428864,232.975250 163.685989,212.935379 163.901367,191.972290 
	C163.768845,174.306381 163.709351,157.563431 163.566910,140.821152 
	C163.527634,136.204926 163.240997,131.590775 163.067871,126.975670 
	C163.094955,126.226685 163.122040,125.477707 163.103485,124.114761 
	C163.057846,123.500793 162.932022,123.017578 162.932007,123.017578 
	C162.952194,122.248955 162.972382,121.480324 162.933640,119.953346 
	C162.771881,118.427643 162.669067,117.660294 162.660522,116.524307 
	C162.544800,114.669907 162.334793,113.184135 162.192474,111.271263 
	C162.175522,108.229790 162.090897,105.615425 162.006271,103.001053 
	C162.054520,101.606613 162.102753,100.212173 162.118134,98.158897 
	C162.053223,97.335442 162.021179,97.170830 161.989166,97.006210 
	C162.044571,96.250679 162.099991,95.495140 162.144958,93.972496 
	C162.071381,92.145668 162.008270,91.085960 161.945160,90.026245 
z"/>
<path fill="#A02829" opacity="1.000000" stroke="none" 
	d="
M45.041458,48.118706 
	C42.102867,47.421230 39.151123,46.774414 36.228497,46.015469 
	C30.590117,44.551296 24.968180,43.023800 19.126419,41.227608 
	C18.072266,37.728287 16.691475,34.552235 16.521482,31.312647 
	C16.289572,26.893042 22.909039,21.043213 27.803587,21.034519 
	C62.199291,20.973421 96.595947,20.892887 130.989975,21.140879 
	C135.308533,21.172016 138.023788,25.282572 139.820648,28.805536 
	C141.061920,31.239176 140.633804,34.524261 140.951691,37.428860 
	C138.381699,37.677174 139.104813,39.635857 139.040039,41.547070 
	C131.480225,46.426342 122.826920,46.253754 113.764343,47.767700 
	C90.367249,48.056126 67.704353,48.087414 45.041458,48.118706 
z"/>
<path fill="#D7D7D8" opacity="1.000000" stroke="none" 
	d="
M200.068665,78.024811 
	C198.139801,77.794655 196.078461,77.010056 194.305817,77.433640 
	C187.823563,78.982605 183.346497,76.224098 179.569305,71.419083 
	C179.291824,71.066078 178.707458,70.954300 178.123337,70.425011 
	C178.073914,56.912312 185.911957,51.118015 199.010025,53.289131 
	C205.450378,54.356674 212.247070,53.129807 218.878860,53.217270 
	C232.646759,53.398869 246.425034,53.496883 260.174072,54.152477 
	C268.791565,54.563385 270.829407,61.317867 272.034729,68.783859 
	C270.613434,70.876617 269.083557,72.508766 267.710846,74.263832 
	C264.058533,78.933456 258.975067,78.219833 253.191742,78.152275 
	C248.327393,78.181206 244.285126,78.007256 240.242569,77.999985 
	C226.851334,77.975891 213.459976,78.011879 200.068665,78.024811 
z"/>
<path fill="#803D40" opacity="1.000000" stroke="none" 
	d="
M108.999573,19.002691 
	C115.800499,19.002691 122.101562,19.002691 128.402618,19.002691 
	C128.400665,19.239702 128.398712,19.476715 128.396744,19.713726 
	C94.785400,19.713726 61.174049,19.713726 27.562698,19.713726 
	C27.560793,19.476715 27.558887,19.239702 27.556980,19.002691 
	C54.537891,19.002691 81.518799,19.002691 108.999573,19.002691 
z"/>
<path fill="#6020D4" opacity="1.000000" stroke="none" 
	d="
M204.006607,264.000000 
	C205.069794,264.000061 206.132980,264.000153 208.064270,264.000732 
	C227.859604,264.001221 246.786926,263.979431 265.713989,264.037476 
	C267.464752,264.042847 269.213928,264.555878 270.963837,264.833191 
	C247.280807,265.211792 223.597778,265.590424 199.728760,265.660828 
	C201.030716,264.901764 202.518661,264.450897 204.006607,264.000000 
z"/>
<path fill="#6421DE" opacity="1.000000" stroke="none" 
	d="
M271.301086,264.903137 
	C269.213928,264.555878 267.464752,264.042847 265.713989,264.037476 
	C246.786926,263.979431 227.859604,264.001221 208.462952,264.001221 
	C209.377487,263.667145 210.760468,263.046936 212.145538,263.042206 
	C231.006104,262.978058 249.867035,262.977203 268.727600,263.045227 
	C270.081726,263.050110 271.433472,263.711853 272.894043,264.450928 
	C272.547272,264.880157 272.092773,264.926636 271.301086,264.903137 
z"/>
<path fill="#FF00FF" opacity="1.000000" stroke="none" 
	d="
M230.000244,267.000000 
	C222.873428,267.000000 216.246567,267.000000 209.619690,267.000000 
	C209.621429,266.760315 209.623169,266.520630 209.624893,266.280945 
	C227.802567,266.280945 245.980240,266.280945 264.157898,266.280945 
	C264.163025,266.520630 264.168152,266.760315 264.173248,267.000000 
	C252.948898,267.000000 241.724533,267.000000 230.000244,267.000000 
z"/>
<path fill="#6421DE" opacity="1.000000" stroke="none" 
	d="
M203.712341,263.703735 
	C202.518661,264.450897 201.030716,264.901764 199.293121,265.591278 
	C195.989822,265.882568 192.936157,265.935211 189.425034,265.951904 
	C187.842178,263.852478 188.432968,262.905823 190.800598,262.997040 
	C195.005463,263.159058 199.212158,263.273285 203.712341,263.703735 
z"/>
<path fill="#774D00" opacity="1.000000" stroke="none" 
	d="
M166.013245,74.422211 
	C165.853546,74.867676 165.690308,74.917549 165.278595,75.029205 
	C165.021820,73.685059 165.013504,72.279121 165.213226,70.452240 
	C165.421280,70.031288 165.837326,70.047874 165.837326,70.047874 
	C165.894775,71.374130 165.952225,72.700378 166.013245,74.422211 
z"/>
<path fill="#757500" opacity="1.000000" stroke="none" 
	d="
M165.901459,69.690582 
	C165.837326,70.047874 165.421280,70.031288 165.213135,70.031876 
	C165.004120,68.985283 165.003235,67.938095 165.022736,66.503326 
	C165.350616,67.188263 165.658096,68.260780 165.901459,69.690582 
z"/>
<path fill="#FFFFFF" opacity="1.000000" stroke="none" 
	d="
M45.167068,48.462181 
	C67.704353,48.087414 90.367249,48.056126 113.493546,48.076023 
	C114.095947,55.191654 116.022186,56.903023 123.124634,57.043667 
	C130.310577,57.185966 137.493378,57.605217 144.670715,58.021141 
	C149.675964,58.311188 149.030319,62.073212 148.991333,66.150558 
	C149.309128,69.516251 149.607468,72.139931 149.905823,74.763611 
	C150.605438,78.570984 151.861954,82.371452 151.909271,86.186913 
	C152.126251,103.682800 152.133575,121.184105 151.965637,138.681061 
	C151.823730,153.464478 151.393494,168.246124 150.978592,183.025421 
	C150.798203,189.450897 150.495667,195.882172 149.944183,202.284607 
	C149.601578,206.261917 148.688156,210.190079 148.025452,215.008667 
	C148.335632,218.286774 148.651321,220.696503 148.967010,223.106232 
	C152.642166,229.923950 151.138794,237.305206 150.520325,244.338409 
	C150.299194,246.852982 146.773438,250.193985 144.054001,251.140228 
	C138.320831,253.135117 132.144882,254.702957 126.113930,254.840729 
	C106.645218,255.285431 87.159363,254.921188 67.681267,255.046738 
	C61.260918,255.088104 54.847584,255.808136 48.424755,255.973160 
	C39.214375,256.209808 30.393866,254.591034 21.963202,250.575958 
	C16.080759,247.774475 13.939460,245.167252 14.021255,238.449371 
	C14.320367,213.883484 14.990725,189.316956 14.890333,164.753220 
	C14.824974,148.760925 13.470597,132.777832 13.085982,116.781166 
	C12.907905,109.374710 12.453820,101.631294 14.278051,94.599205 
	C17.157831,83.498161 16.760094,72.408524 17.067530,61.245773 
	C17.095665,60.224213 17.870621,59.223221 19.119419,58.107689 
	C22.944801,57.955246 25.949549,57.907795 28.954294,57.860344 
	C30.111435,57.908127 31.268576,57.955914 32.950287,58.299957 
	C34.687580,58.421764 35.900307,58.247311 37.113029,58.072861 
	C43.574677,57.877193 46.300533,54.788914 45.167068,48.462181 
M135.736435,207.522400 
	C137.902588,205.058746 140.549500,202.849106 142.039825,200.028381 
	C142.829987,198.532867 142.305588,195.084976 141.104385,194.149490 
	C139.906509,193.216599 135.550812,193.806854 135.285126,194.616806 
	C133.469666,200.151245 129.831238,199.925308 125.217964,199.275604 
	C124.040642,199.109787 121.317108,202.040848 121.328575,203.533508 
	C121.340034,205.024719 123.691780,207.418213 125.368034,207.776443 
	C128.444778,208.434021 131.778961,207.886963 135.736435,207.522400 
M130.184570,163.886734 
	C128.874374,169.545258 134.474411,170.818207 136.890488,174.049850 
	C137.796646,175.261902 140.411819,175.847183 142.086151,175.604218 
	C143.194962,175.443298 144.853775,173.239029 144.765762,172.061691 
	C144.640625,170.387695 143.285324,168.704056 142.172974,167.239151 
	C141.352829,166.159012 139.754379,165.621185 139.068192,164.496658 
	C136.447403,160.201660 134.606094,159.841660 130.184570,163.886734 
M110.960472,158.592163 
	C113.855370,160.748169 116.893280,160.927353 118.500015,157.487732 
	C120.634979,152.917328 116.692039,151.664307 113.576630,149.996506 
	C110.568199,148.385941 107.846146,148.407455 106.446877,151.604950 
	C104.959053,155.004822 106.671150,157.353394 110.960472,158.592163 
M35.002506,193.565216 
	C35.268890,195.769989 35.030254,198.260101 36.039013,200.045425 
	C36.469734,200.807739 40.255798,200.823059 41.165249,199.877502 
	C42.322578,198.674210 42.974705,195.755066 42.300472,194.282791 
	C41.000721,191.444641 38.246140,191.246170 35.002506,193.565216 
M115.001991,174.570465 
	C112.787552,174.450134 110.367744,173.767258 108.452492,174.466461 
	C107.600792,174.777405 106.985764,178.303635 107.690193,179.587708 
	C108.393730,180.870193 111.031143,182.012756 112.555191,181.738861 
	C116.091072,181.103424 116.606354,178.338913 115.001991,174.570465 
M52.429562,176.002014 
	C52.549889,173.787567 53.232761,171.367737 52.533543,169.452484 
	C52.222603,168.600769 48.696339,167.985764 47.412254,168.690201 
	C46.129776,169.393738 44.987259,172.031158 45.261150,173.555206 
	C45.896595,177.091095 48.661121,177.606323 52.429562,176.002014 
M94.196251,175.485291 
	C97.333611,176.607742 100.098434,176.094254 100.738014,172.559814 
	C101.013733,171.036118 99.873604,168.397156 98.591690,167.692123 
	C97.308441,166.986359 93.781410,167.598007 93.469528,168.449585 
	C92.768341,170.364059 93.448967,172.784637 94.196251,175.485291 
M50.492413,116.014206 
	C49.031254,117.115433 46.355541,118.241806 46.377708,119.312317 
	C46.416359,121.178726 47.712963,123.830170 49.253006,124.589546 
	C50.417870,125.163925 53.688259,123.792709 54.426289,122.425926 
	C55.978344,119.551643 54.818733,116.963318 50.492413,116.014206 
M34.703556,119.042694 
	C31.402525,119.814613 30.224838,122.237946 31.353897,125.010002 
	C31.914284,126.385872 34.519962,127.984108 35.847580,127.718498 
	C37.421780,127.403564 39.964214,124.786385 39.693943,123.882721 
	C39.133671,122.009422 36.991676,120.609184 34.703556,119.042694 
M34.709503,139.958542 
	C36.447853,138.801254 39.046631,137.969635 39.647617,136.381851 
	C40.113964,135.149780 38.450748,132.008224 37.065159,131.484177 
	C35.635273,130.943390 32.598709,131.991440 31.683928,133.320801 
	C29.963150,135.821381 30.989786,138.394577 34.709503,139.958542 
M36.757084,184.791855 
	C40.376797,184.623779 42.537010,182.884598 41.380020,179.192230 
	C40.969070,177.880722 38.744862,176.312225 37.392117,176.351898 
	C36.025158,176.391983 33.654091,178.249496 33.622841,179.364120 
	C33.575466,181.053528 35.171520,182.789001 36.757084,184.791855 
M151.000320,106.499390 
	C151.000320,97.231392 151.000320,87.963394 151.000320,78.695396 
	C150.771255,78.700752 150.542191,78.706108 150.313126,78.711464 
	C150.313126,94.247200 150.313126,109.782936 150.313126,125.318672 
	C150.542191,125.320068 150.771255,125.321457 151.000320,125.322853 
	C151.000320,119.381546 151.000320,113.440247 151.000320,106.499390 
M77.981331,125.493439 
	C76.601707,124.344215 75.337654,122.946098 73.763756,122.215271 
	C73.354187,122.025085 71.256683,123.891640 71.222214,124.859406 
	C71.175949,126.158211 72.381073,127.501587 73.048973,128.825821 
	C74.682259,127.987556 76.315544,127.149292 77.981331,125.493439 
M94.458664,254.029587 
	C97.719978,254.029587 100.981285,254.029587 104.242599,254.029587 
	C104.227791,253.773117 104.212990,253.516663 104.198181,253.260193 
	C95.661987,253.260193 87.125801,253.260193 77.923012,253.260193 
	C78.887573,253.688904 79.183540,253.933121 79.482071,253.936279 
	C84.145737,253.985779 88.809738,254.004105 94.458664,254.029587 
M137.317505,128.912720 
	C137.544312,127.373642 137.771103,125.834572 137.997910,124.295486 
	C136.797577,124.474037 134.866425,124.270683 134.535660,124.903641 
	C133.590591,126.712143 133.432510,128.790939 137.317505,128.912720 
M60.390022,135.104752 
	C59.726814,134.996094 59.063606,134.887421 58.400398,134.778763 
	C58.465580,135.350510 58.530766,135.922241 58.595951,136.493988 
	C59.283390,136.228439 59.970825,135.962891 60.390022,135.104752 
z"/>
<path fill="#866109" opacity="1.000000" stroke="none" 
	d="
M162.756195,127.260925 
	C163.240997,131.590775 163.527634,136.204926 163.566910,140.821152 
	C163.709351,157.563431 163.768845,174.306381 163.799835,191.512009 
	C163.159851,190.950699 162.077393,189.928253 162.073746,188.901978 
	C162.002197,168.758591 162.054459,148.614761 162.099258,128.471054 
	C162.099945,128.162506 162.324463,127.854462 162.756195,127.260925 
z"/>
<path fill="#876200" opacity="1.000000" stroke="none" 
	d="
M161.706924,103.291794 
	C162.090897,105.615425 162.175522,108.229790 162.139816,111.665146 
	C162.201736,113.955070 162.383987,115.424004 162.566238,116.892944 
	C162.669067,117.660294 162.771881,118.427643 162.828857,119.581604 
	C162.191635,119.127541 161.099869,118.291420 161.092163,117.445457 
	C161.050171,112.825821 161.274689,108.203758 161.706924,103.291794 
z"/>
<path fill="#955100" opacity="1.000000" stroke="none" 
	d="
M28.663605,57.594437 
	C25.949549,57.907795 22.944801,57.955246 19.496422,57.929382 
	C22.159498,57.680218 25.266207,57.504372 28.663605,57.594437 
z"/>
<path fill="#7B6000" opacity="1.000000" stroke="none" 
	d="
M149.938354,74.351151 
	C149.607468,72.139931 149.309128,69.516251 149.048172,66.462845 
	C149.380661,68.668304 149.675766,71.303490 149.938354,74.351151 
z"/>
<path fill="#7B6800" opacity="1.000000" stroke="none" 
	d="
M148.977814,222.675293 
	C148.651321,220.696503 148.335632,218.286774 148.107941,215.453491 
	C148.460175,217.434753 148.724396,219.839554 148.977814,222.675293 
z"/>
<path fill="#757500" opacity="1.000000" stroke="none" 
	d="
M36.709007,58.050125 
	C35.900307,58.247311 34.687580,58.421764 33.277008,58.317226 
	C34.154434,58.034622 35.229706,58.031010 36.709007,58.050125 
z"/>
<path fill="#876200" opacity="1.000000" stroke="none" 
	d="
M161.691452,90.238586 
	C162.008270,91.085960 162.071381,92.145668 162.065552,93.600029 
	C161.810303,92.813431 161.624023,91.632179 161.691452,90.238586 
z"/>
<path fill="#876200" opacity="1.000000" stroke="none" 
	d="
M161.823242,97.094002 
	C162.021179,97.170830 162.053223,97.335442 162.036942,97.746895 
	C161.878204,97.723083 161.767776,97.452438 161.823242,97.094002 
z"/>
<path fill="#000000" opacity="1.000000" stroke="none" 
	d="
M3.485228,61.477898 
	C3.524792,61.548969 3.445664,61.406830 3.485228,61.477898 
z"/>
<path fill="#866109" opacity="1.000000" stroke="none" 
	d="
M162.774017,123.110413 
	C162.932022,123.017578 163.057846,123.500793 163.020050,123.747559 
	C162.860168,123.730629 162.738098,123.466934 162.774017,123.110413 
z"/>
<path fill="#FFFFFF" opacity="1.000000" stroke="none" 
	d="
M200.027679,78.415596 
	C213.459976,78.011879 226.851334,77.975891 240.242569,77.999985 
	C244.285126,78.007256 248.327393,78.181206 252.764725,78.160820 
	C253.167862,82.104988 255.254913,83.895554 259.262238,84.032234 
	C263.846069,84.188583 268.433411,84.995865 272.993378,84.826241 
	C275.898407,84.718170 277.949219,85.961662 279.106903,87.881668 
	C280.576202,90.318443 281.800720,93.316902 281.882202,96.109596 
	C282.438263,115.170746 282.594086,134.243057 283.017792,153.308701 
	C283.617493,180.292480 284.578094,207.271790 284.777161,234.257507 
	C284.811951,238.975861 284.520813,244.815155 280.039886,248.287125 
	C277.741394,250.068039 274.636353,251.817307 271.880676,251.841293 
	C246.752121,252.060028 221.620239,251.895538 196.740631,251.426453 
	C220.448746,251.009903 243.905533,251.009903 267.362335,251.009903 
	C266.738464,250.131302 266.100830,250.009888 265.463135,250.009598 
	C242.998123,249.999359 220.533081,249.988571 198.068192,250.040894 
	C197.103470,250.043152 196.140121,250.642807 195.176132,250.964172 
	C192.691803,250.788864 190.207489,250.613556 187.014313,250.217285 
	C185.570572,250.067108 184.835663,250.137924 184.100754,250.208725 
	C179.010117,250.335815 176.996872,248.577362 177.021439,243.569992 
	C177.192825,208.633652 177.415802,173.697525 177.649933,138.761536 
	C177.670074,135.757263 177.890701,132.754318 177.999420,129.000122 
	C177.678192,127.474007 177.375717,126.698540 177.073242,125.923073 
	C176.066513,112.453194 175.059769,98.983322 173.982117,84.564865 
	C177.095932,85.268143 178.728058,85.636772 181.209961,85.996429 
	C184.972961,85.948730 187.886200,85.909996 190.799423,85.871269 
	C193.064758,85.162094 195.619186,84.877327 197.496521,83.598541 
	C198.806747,82.706062 199.189606,80.452171 200.027679,78.415596 
M203.802536,202.099808 
	C203.455994,200.582077 203.531006,198.088516 202.686417,197.723663 
	C199.774429,196.465683 196.554718,195.878021 193.403427,195.302216 
	C193.171661,195.259857 192.018997,197.452133 192.213272,198.421310 
	C192.747833,201.087921 200.614090,204.017029 203.802536,202.099808 
M235.018692,136.506592 
	C236.398331,137.655807 237.662384,139.053925 239.236282,139.784744 
	C239.645844,139.974915 241.743347,138.108322 241.777817,137.140549 
	C241.824081,135.841751 240.618942,134.498383 239.951035,133.174133 
	C238.317734,134.012421 236.684448,134.850708 235.018692,136.506592 
M228.493423,119.018661 
	C227.344193,120.398293 225.946075,121.662354 225.215225,123.236275 
	C225.025040,123.645798 226.891647,125.743324 227.859421,125.777786 
	C229.158218,125.824043 230.501602,124.618919 231.825851,123.951004 
	C230.987564,122.317726 230.149292,120.684441 228.493423,119.018661 
M219.203949,188.111832 
	C221.032394,188.571930 222.867340,189.317001 224.684341,189.275589 
	C225.096832,189.266174 226.094849,186.268677 225.634277,185.125732 
	C225.217728,184.092026 222.669495,182.829468 221.962326,183.235870 
	C220.646210,183.992188 219.985306,185.888672 219.203949,188.111832 
M241.493439,119.018669 
	C240.344208,120.398308 238.946121,121.662384 238.215225,123.236275 
	C238.025070,123.645790 239.891663,125.743309 240.859421,125.777771 
	C242.158218,125.824013 243.501587,124.618904 244.825836,123.951012 
	C243.987564,122.317726 243.149277,120.684448 241.493439,119.018669 
M179.000000,185.498108 
	C179.000000,178.276871 179.000000,171.055634 179.000000,163.834412 
	C178.760483,163.842300 178.520950,163.850204 178.281433,163.858109 
	C178.281433,176.692413 178.281433,189.526733 178.281433,202.361053 
	C178.520950,202.361923 178.760483,202.362793 179.000000,202.363647 
	C179.000000,197.074692 179.000000,191.785721 179.000000,185.498108 
M191.772995,136.784393 
	C193.142685,135.664322 194.512360,134.544250 195.882050,133.424179 
	C194.954712,132.348419 194.205276,130.800629 193.038254,130.360764 
	C192.243378,130.061172 189.969650,131.249252 189.925674,131.881241 
	C189.822113,133.369614 190.657608,134.923294 191.772995,136.784393 
M257.226990,132.215607 
	C255.857315,133.335678 254.487640,134.455765 253.117966,135.575851 
	C254.045319,136.651596 254.794754,138.199341 255.961777,138.639236 
	C256.756622,138.938843 259.030396,137.750717 259.074341,137.118729 
	C259.177826,135.630371 258.342377,134.076691 257.226990,132.215607 
M229.679550,199.914688 
	C232.274323,200.277420 233.512955,199.068756 232.760101,196.627686 
	C232.528870,195.877930 230.820114,195.583847 229.787933,195.081100 
	C229.491852,196.613419 229.195770,198.145737 229.679550,199.914688 
M196.112473,125.410187 
	C197.361389,124.723473 198.610291,124.036751 199.859207,123.350029 
	C199.124161,122.613739 198.389099,121.877441 197.654053,121.141144 
	C196.965363,122.388985 196.276672,123.636826 196.112473,125.410187 
M226.184738,147.336609 
	C225.520477,147.749222 224.856216,148.161835 224.191971,148.574463 
	C224.595276,148.985062 224.998566,149.395676 225.401855,149.806274 
	C225.825302,149.148911 226.248749,148.491547 226.184738,147.336609 
z"/>
<path fill="#0000FF" opacity="1.000000" stroke="none" 
	d="
M195.401825,250.971832 
	C196.140121,250.642807 197.103470,250.043152 198.068192,250.040894 
	C220.533081,249.988571 242.998123,249.999359 265.463135,250.009598 
	C266.100830,250.009888 266.738464,250.131302 267.362335,251.009903 
	C243.905533,251.009903 220.448746,251.009903 196.527161,251.055649 
	C196.062393,251.101395 195.627518,250.979492 195.401825,250.971832 
z"/>
<path fill="#0000FF" opacity="1.000000" stroke="none" 
	d="
M190.557129,85.571121 
	C187.886200,85.909996 184.972961,85.948730 181.630142,85.929359 
	C184.238647,85.671173 187.276749,85.471077 190.557129,85.571121 
z"/>
<path fill="#866015" opacity="1.000000" stroke="none" 
	d="
M162.660522,116.524307 
	C162.383987,115.424004 162.201736,113.955070 162.072144,112.092247 
	C162.334793,113.184135 162.544800,114.669907 162.660522,116.524307 
z"/>
<path fill="#7215B8" opacity="1.000000" stroke="none" 
	d="
M184.297195,250.410416 
	C184.835663,250.137924 185.570572,250.067108 186.658783,250.113037 
	C186.172607,250.357193 185.333130,250.484650 184.297195,250.410416 
z"/>
<path fill="#8000FF" opacity="1.000000" stroke="none" 
	d="
M177.049225,126.255554 
	C177.375717,126.698540 177.678192,127.474007 177.925690,128.589691 
	C177.588882,128.149277 177.307053,127.368660 177.049225,126.255554 
z"/>
<path fill="#FFFFFF" opacity="1.000000" stroke="none" 
	d="
M135.371124,207.682251 
	C131.778961,207.886963 128.444778,208.434021 125.368034,207.776443 
	C123.691780,207.418213 121.340034,205.024719 121.328575,203.533508 
	C121.317108,202.040848 124.040642,199.109787 125.217964,199.275604 
	C129.831238,199.925308 133.469666,200.151245 135.285126,194.616806 
	C135.550812,193.806854 139.906509,193.216599 141.104385,194.149490 
	C142.305588,195.084976 142.829987,198.532867 142.039825,200.028381 
	C140.549500,202.849106 137.902588,205.058746 135.371124,207.682251 
z"/>
<path fill="#FFFFFF" opacity="1.000000" stroke="none" 
	d="
M130.354935,163.531586 
	C134.606094,159.841660 136.447403,160.201660 139.068192,164.496658 
	C139.754379,165.621185 141.352829,166.159012 142.172974,167.239151 
	C143.285324,168.704056 144.640625,170.387695 144.765762,172.061691 
	C144.853775,173.239029 143.194962,175.443298 142.086151,175.604218 
	C140.411819,175.847183 137.796646,175.261902 136.890488,174.049850 
	C134.474411,170.818207 128.874374,169.545258 130.354935,163.531586 
z"/>
<path fill="#FFFFFF" opacity="1.000000" stroke="none" 
	d="
M110.617325,158.406448 
	C106.671150,157.353394 104.959053,155.004822 106.446877,151.604950 
	C107.846146,148.407455 110.568199,148.385941 113.576630,149.996506 
	C116.692039,151.664307 120.634979,152.917328 118.500015,157.487732 
	C116.893280,160.927353 113.855370,160.748169 110.617325,158.406448 
z"/>
<path fill="#FFFFFF" opacity="1.000000" stroke="none" 
	d="
M35.284897,193.282837 
	C38.246140,191.246170 41.000721,191.444641 42.300472,194.282791 
	C42.974705,195.755066 42.322578,198.674210 41.165249,199.877502 
	C40.255798,200.823059 36.469734,200.807739 36.039013,200.045425 
	C35.030254,198.260101 35.268890,195.769989 35.284897,193.282837 
z"/>
<path fill="#FFFFFF" opacity="1.000000" stroke="none" 
	d="
M115.244827,174.885529 
	C116.606354,178.338913 116.091072,181.103424 112.555191,181.738861 
	C111.031143,182.012756 108.393730,180.870193 107.690193,179.587708 
	C106.985764,178.303635 107.600792,174.777405 108.452492,174.466461 
	C110.367744,173.767258 112.787552,174.450134 115.244827,174.885529 
z"/>
<path fill="#FFFFFF" opacity="1.000000" stroke="none" 
	d="
M52.114491,176.244843 
	C48.661121,177.606323 45.896595,177.091095 45.261150,173.555206 
	C44.987259,172.031158 46.129776,169.393738 47.412254,168.690201 
	C48.696339,167.985764 52.222603,168.600769 52.533543,169.452484 
	C53.232761,171.367737 52.549889,173.787567 52.114491,176.244843 
z"/>
<path fill="#FFFFFF" opacity="1.000000" stroke="none" 
	d="
M93.881699,175.242249 
	C93.448967,172.784637 92.768341,170.364059 93.469528,168.449585 
	C93.781410,167.598007 97.308441,166.986359 98.591690,167.692123 
	C99.873604,168.397156 101.013733,171.036118 100.738014,172.559814 
	C100.098434,176.094254 97.333611,176.607742 93.881699,175.242249 
z"/>
<path fill="#FFFFFF" opacity="1.000000" stroke="none" 
	d="
M50.891464,116.028015 
	C54.818733,116.963318 55.978344,119.551643 54.426289,122.425926 
	C53.688259,123.792709 50.417870,125.163925 49.253006,124.589546 
	C47.712963,123.830170 46.416359,121.178726 46.377708,119.312317 
	C46.355541,118.241806 49.031254,117.115433 50.891464,116.028015 
z"/>
<path fill="#FFFFFF" opacity="1.000000" stroke="none" 
	d="
M35.101791,119.028572 
	C36.991676,120.609184 39.133671,122.009422 39.693943,123.882721 
	C39.964214,124.786385 37.421780,127.403564 35.847580,127.718498 
	C34.519962,127.984108 31.914284,126.385872 31.353897,125.010002 
	C30.224838,122.237946 31.402525,119.814613 35.101791,119.028572 
z"/>
<path fill="#FFFFFF" opacity="1.000000" stroke="none" 
	d="
M34.317909,139.891693 
	C30.989786,138.394577 29.963150,135.821381 31.683928,133.320801 
	C32.598709,131.991440 35.635273,130.943390 37.065159,131.484177 
	C38.450748,132.008224 40.113964,135.149780 39.647617,136.381851 
	C39.046631,137.969635 36.447853,138.801254 34.317909,139.891693 
z"/>
<path fill="#FFFFFF" opacity="1.000000" stroke="none" 
	d="
M36.413223,184.648376 
	C35.171520,182.789001 33.575466,181.053528 33.622841,179.364120 
	C33.654091,178.249496 36.025158,176.391983 37.392117,176.351898 
	C38.744862,176.312225 40.969070,177.880722 41.380020,179.192230 
	C42.537010,182.884598 40.376797,184.623779 36.413223,184.648376 
z"/>
<path fill="#A95600" opacity="1.000000" stroke="none" 
	d="
M151.000320,106.999161 
	C151.000320,113.440247 151.000320,119.381546 151.000320,125.322853 
	C150.771255,125.321457 150.542191,125.320068 150.313126,125.318672 
	C150.313126,109.782936 150.313126,94.247200 150.313126,78.711464 
	C150.542191,78.706108 150.771255,78.700752 151.000320,78.695396 
	C151.000320,87.963394 151.000320,97.231392 151.000320,106.999161 
z"/>
<path fill="#FFFFFF" opacity="1.000000" stroke="none" 
	d="
M77.965080,125.902229 
	C76.315544,127.149292 74.682259,127.987556 73.048973,128.825821 
	C72.381073,127.501587 71.175949,126.158211 71.222214,124.859406 
	C71.256683,123.891640 73.354187,122.025085 73.763756,122.215271 
	C75.337654,122.946098 76.601707,124.344215 77.965080,125.902229 
z"/>
<path fill="#806C00" opacity="1.000000" stroke="none" 
	d="
M93.966156,254.029602 
	C88.809738,254.004105 84.145737,253.985779 79.482071,253.936279 
	C79.183540,253.933121 78.887573,253.688904 77.923012,253.260193 
	C87.125801,253.260193 95.661987,253.260193 104.198181,253.260193 
	C104.212990,253.516663 104.227791,253.773117 104.242599,254.029587 
	C100.981285,254.029587 97.719978,254.029587 93.966156,254.029602 
z"/>
<path fill="#FFFFFF" opacity="1.000000" stroke="none" 
	d="
M136.908722,128.938904 
	C133.432510,128.790939 133.590591,126.712143 134.535660,124.903641 
	C134.866425,124.270683 136.797577,124.474037 137.997910,124.295486 
	C137.771103,125.834572 137.544312,127.373642 136.908722,128.938904 
z"/>
<path fill="#FFFFFF" opacity="1.000000" stroke="none" 
	d="
M60.524139,135.401031 
	C59.970825,135.962891 59.283390,136.228439 58.595951,136.493988 
	C58.530766,135.922241 58.465580,135.350510 58.400398,134.778748 
	C59.063606,134.887421 59.726814,134.996094 60.524139,135.401031 
z"/>
<path fill="#FFFFFF" opacity="1.000000" stroke="none" 
	d="
M203.616287,202.459839 
	C200.614090,204.017029 192.747833,201.087921 192.213272,198.421310 
	C192.018997,197.452133 193.171661,195.259857 193.403427,195.302216 
	C196.554718,195.878021 199.774429,196.465683 202.686417,197.723663 
	C203.531006,198.088516 203.455994,200.582077 203.616287,202.459839 
z"/>
<path fill="#FFFFFF" opacity="1.000000" stroke="none" 
	d="
M235.034927,136.097778 
	C236.684448,134.850708 238.317734,134.012421 239.951035,133.174133 
	C240.618942,134.498383 241.824081,135.841751 241.777817,137.140549 
	C241.743347,138.108322 239.645844,139.974915 239.236282,139.784744 
	C237.662384,139.053925 236.398331,137.655807 235.034927,136.097778 
z"/>
<path fill="#FFFFFF" opacity="1.000000" stroke="none" 
	d="
M228.902222,119.034912 
	C230.149292,120.684441 230.987564,122.317726 231.825836,123.951004 
	C230.501602,124.618919 229.158218,125.824043 227.859421,125.777786 
	C226.891647,125.743324 225.025040,123.645798 225.215225,123.236275 
	C225.946075,121.662354 227.344193,120.398293 228.902222,119.034912 
z"/>
<path fill="#FFFFFF" opacity="1.000000" stroke="none" 
	d="
M219.127808,187.711182 
	C219.985306,185.888672 220.646210,183.992188 221.962326,183.235870 
	C222.669495,182.829468 225.217728,184.092026 225.634277,185.125732 
	C226.094849,186.268677 225.096832,189.266174 224.684341,189.275589 
	C222.867340,189.317001 221.032394,188.571930 219.127808,187.711182 
z"/>
<path fill="#FFFFFF" opacity="1.000000" stroke="none" 
	d="
M241.902222,119.034912 
	C243.149277,120.684448 243.987564,122.317726 244.825836,123.951004 
	C243.501587,124.618904 242.158218,125.824013 240.859421,125.777771 
	C239.891663,125.743309 238.025070,123.645790 238.215225,123.236275 
	C238.946121,121.662384 240.344208,120.398308 241.902222,119.034912 
z"/>
<path fill="#5555FF" opacity="1.000000" stroke="none" 
	d="
M179.000000,185.997437 
	C179.000000,191.785721 179.000000,197.074692 179.000000,202.363647 
	C178.760483,202.362793 178.520950,202.361923 178.281433,202.361053 
	C178.281433,189.526733 178.281433,176.692413 178.281433,163.858109 
	C178.520950,163.850204 178.760483,163.842300 179.000000,163.834412 
	C179.000000,171.055634 179.000000,178.276871 179.000000,185.997437 
z"/>
<path fill="#FFFFFF" opacity="1.000000" stroke="none" 
	d="
M191.443085,136.617462 
	C190.657608,134.923294 189.822113,133.369614 189.925674,131.881241 
	C189.969650,131.249252 192.243378,130.061172 193.038254,130.360764 
	C194.205276,130.800629 194.954712,132.348419 195.882050,133.424179 
	C194.512360,134.544250 193.142685,135.664322 191.443085,136.617462 
z"/>
<path fill="#FFFFFF" opacity="1.000000" stroke="none" 
	d="
M257.556885,132.382523 
	C258.342377,134.076691 259.177826,135.630371 259.074341,137.118729 
	C259.030396,137.750717 256.756622,138.938843 255.961777,138.639236 
	C254.794754,138.199341 254.045319,136.651596 253.117966,135.575851 
	C254.487640,134.455765 255.857315,133.335678 257.556885,132.382523 
z"/>
<path fill="#FFFFFF" opacity="1.000000" stroke="none" 
	d="
M229.289612,199.796371 
	C229.195770,198.145737 229.491852,196.613419 229.787933,195.081100 
	C230.820114,195.583847 232.528870,195.877930 232.760101,196.627686 
	C233.512955,199.068756 232.274323,200.277420 229.289612,199.796371 
z"/>
<path fill="#FFFFFF" opacity="1.000000" stroke="none" 
	d="
M195.850220,125.147430 
	C196.276672,123.636826 196.965363,122.388985 197.654053,121.141144 
	C198.389099,121.877441 199.124161,122.613739 199.859207,123.350029 
	C198.610291,124.036751 197.361389,124.723473 195.850220,125.147430 
z"/>
<path fill="#FFFFFF" opacity="1.000000" stroke="none" 
	d="
M226.428467,147.585403 
	C226.248749,148.491547 225.825302,149.148911 225.401855,149.806274 
	C224.998566,149.395676 224.595276,148.985062 224.191971,148.574463 
	C224.856216,148.161835 225.520477,147.749222 226.428467,147.585403 
z"/>
</svg>